<svg width="92" height="86" viewBox="0 0 92 86" fill="none" xmlns="http://www.w3.org/2000/svg">
<g opacity="0.8">
<path opacity="0.8" d="M54.7187 77.4703C54.7816 77.4703 54.841 77.4326 54.8585 77.3728C54.8725 77.3255 56.2603 72.5636 59.0043 66.3821C61.5352 60.6823 65.7684 52.5809 71.5712 46.3397C71.6201 46.2862 71.6131 46.2044 71.5537 46.1603C71.4943 46.1162 71.4034 46.1225 71.3545 46.176C65.5272 52.4424 61.28 60.5752 58.7422 66.2909C55.9946 72.4849 54.6033 77.2595 54.5893 77.3067C54.5684 77.3759 54.6138 77.4451 54.6907 77.464C54.6942 77.4672 54.7047 77.4672 54.7187 77.4703Z" fill="white"/>
</g>
<path d="M13.6418 54.2463L45.4907 51.7819V75.9757L13.6418 54.2463Z" fill="url(#paint0_linear_2_4069)"/>
<path d="M45.4907 51.7819L63.0843 56.8618L45.4907 61.2272V51.7819Z" fill="url(#paint1_linear_2_4069)"/>
<path d="M45.459 51.7817L54.254 48.8074L71.7463 53.6229L63.0526 56.8616L45.459 51.7817Z" fill="url(#paint2_linear_2_4069)"/>
<path d="M63.1297 81.1306L30.7739 84.7815V59.3823L60.1688 57.0847L63.0458 56.8612L63.1297 81.1306Z" fill="url(#paint3_linear_2_4069)"/>
<path d="M30.7741 59.4107V84.7817L13.6174 78.0086V54.2459L13.6489 54.2585L30.7741 59.4107Z" fill="url(#paint4_linear_2_4069)"/>
<path opacity="0.5" d="M63.1297 81.1309L30.7739 84.7819V83.3372C31.4066 83.0728 32.1547 82.8683 32.9063 82.7235C35.4161 82.2419 39.9011 83.0823 41.4671 80.7312C43.4806 77.7066 41.7538 73.8353 45.7563 71.7643C47.6439 70.7886 49.8986 70.8705 51.9785 70.6313C53.7543 70.4267 55.4078 69.9861 56.6173 68.4596C58.5573 66.0015 58.6972 62.8101 59.1936 59.9365C59.3928 58.7877 59.7459 57.853 60.1793 57.0881L63.0492 56.8647L63.1297 81.1309Z" fill="url(#paint5_linear_2_4069)"/>
<path opacity="0.4" d="M30.7738 83.3021V84.7783L13.6206 78.0051V54.2425L13.6626 54.2551C14.5225 55.9295 14.7322 57.9501 14.8616 59.807C15.1237 63.5241 16.8016 67.0712 20.4266 68.1979C20.902 68.3458 21.3844 68.5064 21.8668 68.6763C25.5722 69.9982 29.2112 72.1384 29.3965 76.7556C29.5013 79.4781 29.7775 81.5616 30.7738 83.3021Z" fill="url(#paint6_linear_2_4069)"/>
<path d="M30.7879 59.3824L18.3749 64.5756L4.20703 58.0826L13.6103 54.2459L30.7879 59.3824Z" fill="url(#paint7_linear_2_4069)"/>
<path d="M45.2179 15.8137C45.2179 21.3437 40.4149 25.6965 34.2765 25.5265C27.8865 25.3503 22.5137 20.3806 22.5137 14.4352C22.5137 8.4898 27.8865 4.17476 34.2765 4.77276C40.4114 5.34873 45.2179 10.2838 45.2179 15.8137Z" fill="url(#paint8_linear_2_4069)"/>
<path d="M46.8749 15.3392C46.8749 20.8691 42.0719 25.2219 35.9335 25.052C29.5435 24.8757 24.1707 19.906 24.1707 13.9606C24.1707 8.01526 29.5435 3.70021 35.9335 4.29821C42.0719 4.87418 46.8749 9.80926 46.8749 15.3392Z" fill="url(#paint9_linear_2_4069)"/>
<path d="M46.3922 15.3101C46.3922 20.5977 41.7954 24.7491 35.9297 24.5791C29.8368 24.4028 24.7227 19.6598 24.7227 13.9945C24.7227 8.32923 29.8368 4.20932 35.9297 4.76956C41.7989 5.3109 46.3922 10.0225 46.3922 15.3101Z" fill="url(#paint10_linear_2_4069)"/>
<path d="M46.05 15.2891C46.05 20.4036 41.6036 24.4133 35.9336 24.2402C30.0539 24.064 25.1216 19.4814 25.1216 14.0176C25.1216 8.55376 30.0539 4.57234 35.9336 5.10739C41.6001 5.62671 46.05 10.1747 46.05 15.2891Z" fill="url(#paint11_linear_2_4069)"/>
<path d="M35.8742 6.84756C36.1748 6.87273 36.4195 7.11823 36.4195 7.3952V8.33626C37.0243 8.39606 37.6255 8.49048 38.2303 8.61953C38.6777 8.71395 39.1182 8.82725 39.5586 8.95629C39.8208 9.03498 40.0026 9.27418 39.9746 9.51967L39.8453 10.6999C39.8103 11.0147 39.4677 11.1972 39.1426 11.0682C38.8525 10.9517 38.5554 10.851 38.2513 10.7692C37.7199 10.6244 37.1606 10.53 36.5699 10.4859L36.416 10.4733V13.1706C37.9891 13.5672 39.1461 14.0991 39.8907 14.7695C40.6353 15.4367 41.0058 16.2676 41.0058 17.2685C41.0058 18.348 40.5968 19.2136 39.7754 19.8651C38.9504 20.5197 37.7898 20.8911 36.2902 20.9698V22.0084C36.2902 22.2854 36.0455 22.4994 35.7449 22.49H35.7344C35.4303 22.4805 35.1856 22.2445 35.1856 21.9675V20.9446L34.9409 20.9352C34.2383 20.9068 33.5671 20.8408 32.9239 20.74C32.4485 20.6645 31.9836 20.5701 31.5291 20.4505C31.2565 20.3781 31.0677 20.1452 31.0922 19.8903L31.2425 18.3732C31.2739 18.0459 31.641 17.8539 31.9871 17.9767C32.3926 18.1214 32.798 18.241 33.214 18.3386C33.8572 18.4928 34.5144 18.5904 35.1751 18.6345L35.1856 15.635C33.6755 15.2982 32.5429 14.801 31.8018 14.14C31.0537 13.4759 30.6797 12.6293 30.6797 11.5969C30.6797 10.53 31.0852 9.70537 31.8962 9.12625C32.7002 8.55028 33.8467 8.26387 35.3219 8.26387V7.30078C35.3254 7.02696 35.5736 6.82238 35.8742 6.84756ZM35.3254 10.4481C34.857 10.4796 34.4934 10.5929 34.2348 10.7944C33.9726 10.9958 33.8432 11.2665 33.8432 11.6032C33.8432 11.9243 33.9656 12.1918 34.2068 12.409C34.448 12.623 34.822 12.7961 35.3289 12.9251V10.4481H35.3254ZM36.2937 15.8774V18.6282C36.8006 18.6282 37.1886 18.5211 37.4612 18.3008C37.7339 18.0837 37.8667 17.7752 37.8667 17.3755C37.8667 17.0104 37.7409 16.7114 37.4892 16.4691C37.241 16.2299 36.8425 16.0316 36.2937 15.8774Z" fill="url(#paint12_linear_2_4069)"/>
<path opacity="0.3" d="M34.1022 16.5412C34.4448 13.5009 37.5454 12.2167 37.1399 9.41873C36.8917 7.69712 35.4411 6.24304 33.8226 5.10999C28.9147 5.57265 25.1184 9.23304 25.1184 14.017C25.1184 19.4809 30.0508 24.0634 35.9304 24.2397C36.5002 24.2554 37.0595 24.2302 37.6014 24.1673C35.2698 22.0743 33.8086 19.1504 34.1022 16.5412Z" fill="url(#paint13_linear_2_4069)"/>
<path d="M28.1346 33.0294C28.1346 37.4106 24.3278 40.8601 19.4654 40.7248C14.4037 40.5863 10.146 36.6489 10.146 31.9373C10.146 27.2257 14.4037 23.8076 19.4654 24.2829C24.3278 24.7393 28.1346 28.6483 28.1346 33.0294Z" fill="url(#paint14_linear_2_4069)"/>
<path d="M29.4491 32.6519C29.4491 37.033 25.6423 40.4825 20.7798 40.3472C15.7181 40.2087 11.4604 36.2713 11.4604 31.5597C11.4604 26.8481 15.7181 23.4301 20.7798 23.9053C25.6423 24.3617 29.4491 28.2707 29.4491 32.6519Z" fill="url(#paint15_linear_2_4069)"/>
<path d="M29.0643 32.6303C29.0643 36.8194 25.4219 40.1084 20.7762 39.9731C15.9487 39.8315 11.8972 36.0767 11.8972 31.5885C11.8972 27.1004 15.9487 23.8365 20.7762 24.2803C25.4254 24.7084 29.0643 28.4411 29.0643 32.6303Z" fill="url(#paint16_linear_2_4069)"/>
<path d="M28.7914 32.6105C28.7914 36.6612 25.2677 39.84 20.7758 39.7015C16.1161 39.5599 12.208 35.931 12.208 31.6034C12.208 27.2757 16.1161 24.1189 20.7758 24.5438C25.2677 24.9561 28.7914 28.5599 28.7914 32.6105Z" fill="url(#paint17_linear_2_4069)"/>
<path d="M20.7305 25.9254C20.9682 25.9475 21.164 26.1394 21.164 26.3566V27.1025C21.6429 27.1497 22.1218 27.2253 22.6007 27.326C22.9537 27.4015 23.3033 27.4897 23.6529 27.5935C23.8626 27.6565 24.0024 27.8453 23.9815 28.0405L23.8801 28.9752C23.8521 29.2239 23.5795 29.3686 23.3243 29.2648C23.0936 29.1735 22.8594 29.0948 22.6182 29.0287C22.1987 28.9154 21.7547 28.8399 21.2863 28.8053L21.164 28.7958V30.9329C22.4119 31.2476 23.3278 31.6694 23.9185 32.2013C24.5058 32.73 24.7994 33.3878 24.7994 34.181C24.7994 35.0371 24.4744 35.7232 23.8242 36.2394C23.1705 36.7587 22.2511 37.0514 21.0626 37.1143V37.9389C21.0626 38.1561 20.8703 38.3292 20.6291 38.3198H20.6221C20.3809 38.3103 20.1887 38.1278 20.1887 37.9075V37.0954L19.9964 37.0891C19.4406 37.0671 18.9058 37.0168 18.3989 36.9349C18.0214 36.8751 17.6543 36.7996 17.2943 36.7052C17.0776 36.6485 16.9272 36.4628 16.9482 36.2614L17.0671 35.0591C17.0915 34.7979 17.3817 34.6468 17.6578 34.7443C17.9794 34.8577 18.301 34.9552 18.6296 35.0308C19.14 35.1535 19.6573 35.229 20.1817 35.2637L20.1887 32.8874C18.9932 32.6199 18.0948 32.2265 17.5075 31.704C16.9168 31.1784 16.6196 30.5048 16.6196 29.6897C16.6196 28.843 16.9412 28.1915 17.5809 27.732C18.2171 27.2756 19.126 27.049 20.2936 27.049V26.2874C20.2971 26.0639 20.4928 25.9034 20.7305 25.9254ZM20.2971 28.7769C19.9265 28.8021 19.6399 28.8934 19.4336 29.0508C19.2274 29.2113 19.1225 29.4221 19.1225 29.6928C19.1225 29.9478 19.2169 30.1586 19.4092 30.3286C19.6014 30.4985 19.8951 30.6339 20.2971 30.7377V28.7769ZM21.0661 33.0794V35.2574C21.4681 35.2574 21.7757 35.1724 21.9924 34.9993C22.2057 34.8262 22.314 34.5807 22.314 34.266C22.314 33.9764 22.2127 33.7403 22.0134 33.5483C21.8142 33.3564 21.4961 33.199 21.0661 33.0794Z" fill="url(#paint18_linear_2_4069)"/>
<path opacity="0.3" d="M19.3291 33.6052C19.5982 31.1974 22.0592 30.1777 21.7376 27.962C21.5383 26.596 20.3917 25.4472 19.1088 24.5471C15.2217 24.9153 12.2119 27.814 12.2119 31.6035C12.2119 35.9342 16.1201 39.56 20.7798 39.7016C21.2307 39.7142 21.6746 39.6953 22.1046 39.645C20.2519 37.9895 19.0948 35.673 19.3291 33.6052Z" fill="url(#paint19_linear_2_4069)"/>
<path d="M15.1555 82.9573C15.1555 82.9573 15.0891 83.4357 15.1346 83.5962C15.18 83.7567 16.7286 83.8732 17.2529 83.8165C17.7773 83.7598 16.9383 83.2783 16.6062 83.187C16.2671 83.0989 15.1555 82.9573 15.1555 82.9573Z" fill="url(#paint20_linear_2_4069)"/>
<path d="M15.9353 82.1575L15.771 83.1206C15.771 83.1206 15.355 83.2906 15.1557 83.1238L15.1348 82.1166L15.9353 82.1575Z" fill="url(#paint21_linear_2_4069)"/>
<path d="M7.20285 82.1138C7.20285 82.1138 7.53144 82.3341 7.44405 82.5953C7.35666 82.8597 6.59111 83.9109 6.04229 84.2099C5.49697 84.5089 5.66826 83.8858 5.82557 83.4986C5.98287 83.1115 6.39186 82.2554 6.54916 82.1138C6.70996 81.9722 7.20285 82.1138 7.20285 82.1138Z" fill="url(#paint22_linear_2_4069)"/>
<path d="M7.79366 81.0567C7.63636 81.4564 7.48255 81.7837 7.3637 82.0261C7.09803 82.5611 6.95471 82.7626 6.79041 82.9357C6.64709 83.0867 6.31151 83.4109 6.22063 83.3574C6.12974 83.3039 6.37443 82.9105 6.85334 81.7586C6.92325 81.5918 7.13998 81.0599 7.13998 81.0599H7.79366V81.0567Z" fill="url(#paint23_linear_2_4069)"/>
<path d="M19.1754 64.3998C19.2872 65.4006 19.3991 66.9554 19.2348 68.8439C19.0216 71.302 18.4762 72.8599 17.7911 75.4817C17.3716 77.0837 16.8088 79.4411 16.2985 82.3901C16.1796 82.4499 15.83 82.6105 15.3826 82.5507C15.1309 82.516 14.9421 82.4279 14.8338 82.3618C13.4949 78.6762 13.8899 76.3944 14.5366 74.9718C14.8128 74.3644 15.1449 73.886 15.3232 72.9543C15.5609 71.7206 15.2672 71.0313 14.8513 68.1766C14.5541 66.1403 14.6066 65.8255 14.8023 65.5202C15.5958 64.3054 18.0078 64.3274 19.1754 64.3998Z" fill="url(#paint24_linear_2_4069)"/>
<path d="M14.5678 64.8279C13.7463 68.6425 12.9423 70.6442 12.3341 71.7773C12.1838 72.0574 11.6839 72.9575 11.2085 74.2511C10.789 75.3936 10.6142 76.2371 10.5233 76.6085C10.2402 77.7762 9.54107 79.4852 7.66041 81.723C7.63594 81.7356 7.31784 81.8992 7.01022 81.7544C6.85641 81.682 6.77601 81.5624 6.74805 81.5089C6.99274 79.3687 7.27589 77.5684 7.52059 76.1804C7.57302 75.8877 7.79674 74.6162 8.1533 72.9324C8.29312 72.2746 8.49587 71.3083 8.74057 70.3169C9.04469 69.0831 9.50961 67.4024 10.2262 65.3913C11.6734 65.2056 13.1206 65.0167 14.5678 64.8279Z" fill="url(#paint25_linear_2_4069)"/>
<path d="M15.2672 49.7422C15.7321 49.3551 16.6235 48.9082 17.0675 47.8727C17.2003 47.5611 17.6792 46.4532 16.9766 45.6066C16.5606 45.103 15.7846 44.7631 15.1029 44.8827C14.5192 44.9865 14.4283 45.3516 13.439 46.0881C13.0545 46.3745 12.4323 46.8341 11.7436 47.0921C10.5621 47.5296 9.85246 47.1173 8.66394 47.1645C7.20626 47.2212 5.51087 47.9545 4.69638 49.0215C3.24918 50.9131 5.34657 52.8298 3.75955 55.0455C3.2387 55.7726 2.98352 55.6089 1.75305 57.0127C0.519085 58.4195 -0.0961493 59.1214 0.0122158 59.9838C0.166024 61.1798 1.59574 62.3223 2.94157 62.401C4.25943 62.4765 5.09489 61.5449 5.76605 61.9509C6.24146 62.2404 5.9688 62.807 6.47567 63.4837C7.12935 64.3586 8.41226 64.5317 8.6185 64.5601C10.5411 64.8213 13.1384 62.7912 14.2395 60.3835C16.2285 56.0464 12.7364 51.8478 15.2672 49.7422Z" fill="url(#paint26_linear_2_4069)"/>
<path d="M23.1606 50.9487C23.1746 49.737 20.1159 48.7708 18.7176 48.456C16.5433 47.9713 14.799 48.2766 14.376 48.3553C11.6634 48.8715 9.97501 50.3381 9.33881 50.955C9.85966 51.2603 11.2964 52.1919 12.0095 53.9576C12.2297 54.5084 12.8834 56.3874 11.9501 58.1468C11.4117 59.1602 10.4574 59.9219 9.73381 60.501C8.64667 61.3697 8.08387 61.5019 7.72032 62.2793C7.32531 63.1259 7.72382 63.5382 7.23093 64.1173C6.70309 64.7405 6.08086 64.4509 5.18598 65.0804C4.26662 65.7256 4.59521 66.2544 3.75975 66.9688C2.54676 68.0043 0.935271 67.6675 0.861862 68.1334C0.798941 68.5331 1.94202 69.0776 2.91381 69.2979C4.83991 69.7354 6.51782 69.002 7.0177 68.7754C8.39848 68.1491 8.16077 67.7462 9.21646 67.2678C10.9818 66.4684 12.1878 67.3591 16.2078 67.4504C18.3855 67.5007 19.4867 67.5102 20.0879 66.8492C20.6402 66.2449 20.3501 65.5777 20.018 62.7167C19.8607 61.3539 19.8048 59.9817 19.6894 58.6157C19.3608 54.7507 19.3503 54.4108 19.644 53.8758C20.6787 51.9653 23.1501 52.0346 23.1606 50.9487Z" fill="#06BF97"/>
<g opacity="0.3">
<path opacity="0.3" d="M3.75982 66.9716C4.59528 66.2603 4.27019 65.7284 5.18605 65.0832C6.08093 64.4537 6.70316 64.7433 7.231 64.1201C7.72389 63.541 7.32538 63.1287 7.72039 62.282C8.08394 61.5046 8.64674 61.3724 9.73389 60.5038C10.4575 59.9246 11.4118 59.163 11.9501 58.1495C12.887 56.3902 12.2298 54.508 12.0096 53.9604C11.2964 52.1947 9.85973 51.2631 9.33888 50.9578C9.38782 50.9106 9.44724 50.8539 9.51017 50.7941C12.9394 51.219 14.9424 53.0036 15.1871 53.5323C15.7604 54.7535 14.855 55.2036 14.8305 58.7255C14.8201 60.4093 15.0228 61.0734 14.4146 61.7784C13.7189 62.581 12.9219 62.3324 11.9152 63.3836C11.1426 64.1925 11.2685 64.7024 10.5484 65.0423C9.77234 65.4074 9.27945 64.9825 8.40904 65.1493C6.95135 65.4294 6.63674 66.9433 5.67194 67.7742C4.94135 68.4005 3.59553 68.838 0.935337 68.369C0.872415 68.2872 0.84445 68.2085 0.854937 68.1361C0.935337 67.6703 2.54334 68.0071 3.75982 66.9716Z" fill="#06BF97"/>
</g>
<path d="M14.1523 54.4831C14.5158 55.1818 12.8414 56.8058 10.9782 57.5769C10.5972 57.7343 7.87409 58.8611 6.6576 57.7784C5.65435 56.8814 6.30105 55.0276 6.53176 54.3666C7.66784 51.1154 11.153 49.463 12.6177 48.8682C13.7083 51.3231 13.0651 52.4184 12.8134 52.7583C12.5478 53.114 11.8137 53.8662 11.0307 54.524C10.4783 54.9898 10.1358 55.2133 10.1847 55.2857C10.2406 55.3769 10.8873 55.207 13.3937 54.1054C13.6804 54.1495 14.0264 54.2439 14.1523 54.4831Z" fill="#06BF97"/>
<path d="M24.6424 50.4768L23.4119 55.9941C23.3735 56.1704 23.2197 56.3089 23.0239 56.3466L13.8513 58.1186C13.5227 58.1815 13.2186 57.9423 13.2431 57.6402L13.7255 52.0316C13.743 51.8365 13.8968 51.6728 14.1065 51.6287C15.5607 51.3045 21.1607 50.096 24.1146 49.9386C24.4501 49.9166 24.7053 50.1841 24.6424 50.4768Z" fill="url(#paint27_linear_2_4069)"/>
<path d="M15.4909 46.448C15.4909 46.448 15.3161 47.6944 14.8058 47.9776C14.2954 48.264 13.4704 48.6354 13.3796 48.7361C13.2887 48.8368 16.5431 49.1516 18.1546 48.4182C17.6233 48.3175 17.4799 48.2829 17.4799 48.2829C17.3366 48.2451 17.0675 48.179 16.7983 48.0406C16.613 47.9461 16.3194 47.7636 16.0467 47.4142L16.0537 46.725L15.4909 46.448Z" fill="url(#paint28_linear_2_4069)"/>
<path d="M15.4141 46.8888C15.4141 46.8888 15.7461 47.3011 16.2705 47.128C16.7389 46.9738 16.4593 45.888 16.0887 45.7621C15.9664 45.7212 15.7391 45.7401 15.5853 45.825C15.477 45.8848 15.1938 46.2027 15.3581 46.5615C15.2393 46.53 15.1344 46.5584 15.1099 46.6119C15.0785 46.678 15.1763 46.7692 15.2008 46.7913C15.2777 46.8637 15.3721 46.8825 15.4141 46.8888Z" fill="url(#paint29_linear_2_4069)"/>
<path opacity="0.3" d="M16.382 55.2456C17.3678 54.997 18.1857 55.617 18.9688 55.126C19.7728 54.6224 19.2484 53.7632 20.0839 52.9166C20.9788 52.0133 22.1113 52.4539 22.9398 51.6324C23.2474 51.3271 23.5236 50.8267 23.5271 49.9769C23.7333 49.958 23.9326 49.9454 24.1213 49.936C24.4499 49.9171 24.7086 50.1846 24.6457 50.4773L23.4152 55.9947C23.3768 56.171 23.223 56.3094 23.0272 56.3472L14.2112 58.0499C14.8299 56.0828 15.6619 55.4282 16.382 55.2456Z" fill="url(#paint30_linear_2_4069)"/>
<path d="M24.0591 53.4103C24.0591 53.4103 24.6428 52.9224 24.7093 52.359C24.7722 51.7925 24.3317 51.3393 23.9053 51.226C23.4788 51.1095 23.2481 51.2795 23.5347 51.8366C23.8179 52.3937 24.2758 52.7556 24.0591 53.4103Z" fill="url(#paint31_linear_2_4069)"/>
<path d="M66.2584 76.4677L60.3158 61.5271C60.2144 61.269 60.0186 61.0267 59.7425 60.9197L52.1989 57.98C51.692 57.7817 51.1047 57.9737 50.853 58.4144L47.0743 65.0081C46.9939 65.1497 46.9519 65.3134 46.9519 65.4771C46.9519 65.5967 46.9729 65.7131 47.0148 65.8201L52.9574 80.7607C53.1602 81.2706 53.8069 81.5255 54.3732 81.3429L65.6641 77.7014C66.2304 77.5189 66.4611 76.9776 66.2584 76.4677ZM53.1846 62.3391C52.5449 62.5469 51.8423 62.2479 51.6116 61.6687C51.3809 61.0928 51.713 60.4602 52.3562 60.2524C52.9959 60.0479 53.6985 60.3469 53.9292 60.9228C54.1564 61.4988 53.8243 62.1314 53.1846 62.3391Z" fill="#06BF97"/>
<path d="M57.257 69.2075C56.9494 69.2264 56.6698 69.239 56.4181 69.2453C55.3309 69.2736 54.7541 69.1698 54.6318 68.8645C54.5654 68.7008 54.5794 68.5057 54.7786 68.3074C54.9464 68.1406 55.24 67.9737 55.7259 67.8164C57.1801 67.3474 58.2952 67.445 58.8476 67.4544L58.5924 65.1757C57.8443 65.1443 56.9389 65.182 55.5546 65.5786L55.0408 64.285L53.0378 64.9302L53.5936 66.3308C52.9119 66.6865 52.2862 67.1554 51.9017 67.6527V67.6559C51.2795 68.4553 51.1466 69.368 51.5032 70.2682C52.1569 71.9111 54.0166 72.2101 56.1384 72.0024C57.6485 71.8545 58.2673 71.9426 58.4491 72.3958C58.6483 72.8931 58.0505 73.2897 57.1627 73.5761C55.8588 73.9978 54.499 73.9915 53.5202 73.9002L53.7684 76.2671C54.6248 76.3804 56.1105 76.2765 57.4108 75.924L57.9667 77.3183L59.9697 76.6731L59.3614 75.1435C60.1409 74.7752 60.6164 74.3881 61.0079 73.9443C61.0114 73.9412 61.0219 73.9349 61.0254 73.9317C61.8049 73.0536 61.9902 72.0339 61.6126 71.0834C61.0149 69.5915 59.8089 69.0313 57.257 69.2075Z" fill="white"/>
<path opacity="0.2" d="M65.8948 75.5488L66.2618 76.4678C66.4646 76.9777 66.2339 77.5159 65.6676 77.6984L54.3766 81.3399C53.8103 81.5225 53.1636 81.2675 52.9609 80.7577L47.0183 65.8171C46.9764 65.7101 46.9554 65.5905 46.9589 65.4709C47.3224 66.1035 47.7978 66.67 48.4725 67.0225C49.5037 67.5576 50.7551 67.5293 51.9122 67.6489C51.9891 67.6583 52.066 67.6646 52.1429 67.6772C53.0483 67.7905 53.9467 67.9793 54.7786 68.3067C55.1527 68.4546 55.5162 68.6309 55.8588 68.8417C56.0615 68.9676 56.2503 69.103 56.4181 69.2446C57.5612 70.192 58.0715 71.4666 59.0223 72.5934C59.5432 73.2134 60.2528 73.6163 61.0219 73.9279C61.5672 74.1513 62.1195 74.337 62.6788 74.5164C63.6855 74.8406 64.8915 75.0987 65.8948 75.5488Z" fill="#06BF97"/>
<path d="M52.7444 60.7624C52.7199 60.8631 52.622 60.9292 52.5102 60.9292C52.4927 60.9292 52.4752 60.9292 52.4542 60.9229C52.3249 60.8946 52.2445 60.7812 52.276 60.6648C52.2795 60.6491 52.7059 58.9495 51.8145 58.2225C51.5209 57.9833 51.1049 57.8542 50.5771 57.8699C50.5002 57.8731 50.4198 57.8699 50.3359 57.8699H50.3324L48.7978 57.9801C48.7803 57.8762 48.8433 57.7818 48.9586 57.7472C50.4058 57.3034 51.4755 57.3569 52.1431 57.8983C53.2373 58.7921 52.7654 60.6805 52.7444 60.7624Z" fill="url(#paint32_linear_2_4069)"/>
<path d="M74.8376 25.4377C74.8376 25.4377 79.6126 30.6624 75.0088 38.6347C74.5789 39.3775 73.4148 39.4152 72.9219 38.7039L69.7898 34.178C69.2865 33.4541 69.1501 32.5697 69.4088 31.7482L70.7407 27.5276L74.8376 25.4377Z" fill="url(#paint33_linear_2_4069)"/>
<path d="M64.0251 17.0965C64.0251 17.0965 57.5582 13.647 49.5147 18.9661C48.7666 19.4602 48.903 20.5051 49.7559 20.8325L55.2021 22.9255C56.076 23.2622 57.0653 23.2497 57.9287 22.8909L62.3577 21.0591L64.0251 17.0965Z" fill="url(#paint34_linear_2_4069)"/>
<path d="M75.3549 24.8954C75.3549 24.8954 80.1299 30.12 75.5262 38.0923C75.0962 38.8351 73.9322 38.8728 73.4393 38.1615L70.3072 33.6356C69.8038 32.9117 69.6675 32.0273 69.9261 31.2058L71.258 26.9852L75.3549 24.8954Z" fill="url(#paint35_linear_2_4069)"/>
<path d="M64.5427 16.5516C64.5427 16.5516 58.0758 13.102 50.0323 18.4211C49.2842 18.9152 49.4205 19.9602 50.2735 20.2875L55.7197 22.3805C56.5936 22.7173 57.5829 22.7047 58.4463 22.3459L62.8753 20.5141L64.5427 16.5516Z" fill="url(#paint36_linear_2_4069)"/>
<path d="M70.3034 4.01542C77.5813 -2.10936 89.089 0.591085 89.096 0.603674C89.11 0.606822 93.8396 10.4298 88.2326 17.845C83.1464 24.5709 72.2784 29.207 70.1915 30.0536C69.9678 30.1449 69.6043 30.2676 69.4819 30.0756C67.0944 26.3429 63.784 23.9194 59.7395 22.566C59.5158 22.4905 59.5997 22.1537 59.6661 21.9491C60.2639 19.9915 63.6861 9.58312 70.3034 4.01542Z" fill="url(#paint37_linear_2_4069)"/>
<g opacity="0.3">
<path opacity="0.3" d="M74.404 13.8068C78.4764 10.4076 82.0909 11.9844 86.0095 9.03534C87.4392 7.95894 89.0298 6.18698 90.0155 3.06793C91.0468 6.45765 92.1024 12.7272 88.2293 17.848C83.1431 24.5739 72.2751 29.21 70.1882 30.0566C69.9645 30.1479 69.601 30.2706 69.4786 30.0787C68.2726 28.1934 66.8289 26.6417 65.179 25.3922C66.6856 24.6557 67.7832 23.8091 68.6012 22.9939C71.9046 19.7081 70.6916 16.9038 74.404 13.8068Z" fill="url(#paint38_linear_2_4069)"/>
</g>
<path d="M84.2439 5.70211C81.6292 3.68465 78.3782 1.82456 75.4314 1.1762C81.1363 -0.772025 87.2362 0.228838 88.7428 0.530985C88.9665 0.575048 89.1483 0.716681 89.2322 0.90867C89.795 2.20224 91.8295 7.47408 90.564 12.8498C89.5958 10.5931 86.8622 7.71958 84.2439 5.70211Z" fill="#06BF97"/>
<path opacity="0.3" d="M90.0149 3.06793C90.0184 3.08367 90.0254 3.09941 90.0289 3.11514C90.0359 3.14347 90.0464 3.16865 90.0534 3.19697C90.0603 3.2253 90.0708 3.25048 90.0778 3.27881C90.0848 3.30399 90.0918 3.33231 90.1023 3.35749C90.1093 3.38582 90.1198 3.41729 90.1268 3.44562C90.1338 3.4708 90.1408 3.49598 90.1477 3.52115C90.1582 3.55263 90.1652 3.5841 90.1757 3.61558C90.1827 3.64075 90.1897 3.66593 90.1967 3.69111C90.2072 3.72573 90.2142 3.75721 90.2246 3.79183C90.2316 3.81701 90.2386 3.83904 90.2456 3.86422C90.2561 3.89884 90.2631 3.93661 90.2736 3.97123C90.2806 3.99326 90.2841 4.01844 90.2911 4.04047C90.3015 4.07824 90.3085 4.11601 90.319 4.15378C90.326 4.17581 90.3295 4.19784 90.3365 4.22302C90.347 4.26079 90.354 4.3017 90.3645 4.33947C90.3715 4.3615 90.375 4.38353 90.3819 4.40557C90.3924 4.44648 90.4029 4.4874 90.4099 4.52831C90.4134 4.55034 90.4204 4.57238 90.4239 4.59441C90.4344 4.63532 90.4449 4.67939 90.4519 4.72345C90.4554 4.74548 90.4623 4.76436 90.4658 4.7864C90.4763 4.83046 90.4868 4.87452 90.4938 4.91859C90.4973 4.93747 90.5008 4.9595 90.5078 4.97839C90.5183 5.02245 90.5288 5.06966 90.5358 5.11687C90.5393 5.13575 90.5427 5.15779 90.5462 5.17667C90.5567 5.22388 90.5637 5.27109 90.5742 5.3183C90.5777 5.33719 90.5812 5.35607 90.5847 5.37495C90.5952 5.42217 90.6022 5.47252 90.6127 5.51974C90.6162 5.53862 90.6196 5.5575 90.6231 5.57639C90.6336 5.62675 90.6406 5.6771 90.6511 5.72746C90.6546 5.74635 90.6581 5.76523 90.6616 5.78411C90.6721 5.83447 90.6791 5.88798 90.6896 5.93834C90.6931 5.95722 90.6966 5.97296 90.7 5.99184C90.707 6.04535 90.7175 6.09885 90.7245 6.15236C90.728 6.17124 90.7315 6.18698 90.7315 6.20586C90.7385 6.25937 90.749 6.31602 90.756 6.36953C90.7595 6.38526 90.7595 6.40415 90.763 6.41988C90.77 6.47654 90.7804 6.53319 90.7874 6.58984C90.7909 6.60558 90.7909 6.62132 90.7944 6.63705C90.8014 6.6937 90.8084 6.75036 90.8154 6.81016C90.8189 6.82589 90.8189 6.84163 90.8224 6.85737C90.8294 6.91717 90.8364 6.97382 90.8434 7.03362C90.8434 7.04936 90.8469 7.06509 90.8469 7.08083C90.8539 7.14063 90.8608 7.20043 90.8678 7.26023C90.8678 7.27597 90.8713 7.28856 90.8713 7.30429C90.8783 7.36409 90.8818 7.42704 90.8888 7.48684C90.8888 7.49943 90.8923 7.51517 90.8923 7.52776C90.8993 7.59071 90.9028 7.65365 90.9098 7.71345C90.9098 7.72604 90.9133 7.74178 90.9133 7.75437C90.9168 7.81732 90.9238 7.88026 90.9273 7.94636C90.9273 7.95895 90.9273 7.97154 90.9308 7.98413C90.9343 8.05022 90.9378 8.11317 90.9413 8.17926C90.9413 8.19185 90.9412 8.20444 90.9447 8.21703C90.9482 8.28313 90.9517 8.34922 90.9552 8.41532C90.9552 8.42791 90.9552 8.43735 90.9552 8.44994C90.9587 8.51603 90.9622 8.58527 90.9622 8.65137C90.9622 8.66081 90.9622 8.6734 90.9622 8.68284C90.9657 8.75209 90.9657 8.82133 90.9657 8.88742C90.9657 8.89686 90.9657 8.90945 90.9657 8.9189C90.9657 8.98814 90.9692 9.05738 90.9692 9.12662C90.9692 9.13606 90.9692 9.14551 90.9692 9.15495C90.9692 9.22734 90.9692 9.29658 90.9692 9.36897C90.9692 9.37841 90.9692 9.38471 90.9692 9.39415C90.9692 9.46654 90.9657 9.53893 90.9657 9.61132C90.9657 9.61761 90.9657 9.62705 90.9657 9.63335C90.9622 9.70574 90.9622 9.78127 90.9587 9.85366C90.9587 9.85996 90.9587 9.86625 90.9587 9.87255C90.9552 9.94809 90.9517 10.0236 90.9482 10.0992C90.9482 10.1055 90.9482 10.1086 90.9482 10.1149C90.9447 10.1904 90.9413 10.2691 90.9343 10.3478C90.9343 10.3509 90.9343 10.3541 90.9343 10.3604C90.9273 10.4391 90.9238 10.5178 90.9168 10.5964C90.9168 10.5996 90.9168 10.5996 90.9168 10.6027C90.8574 11.3424 90.742 12.0946 90.5672 12.85C89.9485 11.4085 88.6062 9.71518 87.0366 8.15408C88.1552 7.04936 89.2633 5.45364 90.0149 3.06793Z" fill="#06BF97"/>
<path d="M71.1179 8.37711C68.5171 11.109 69.1428 15.4304 72.5091 18.0301C75.8789 20.6298 80.7169 20.5228 83.3177 17.7909C85.9184 15.059 85.2927 10.7376 81.9264 8.13791C78.5566 5.53504 73.7186 5.6452 71.1179 8.37711Z" fill="url(#paint39_linear_2_4069)"/>
<path d="M74.4034 13.8066C77.7278 11.0337 80.7445 11.5719 83.8731 10.2626C85.4112 12.7207 85.2959 15.7139 83.3208 17.7911C80.7201 20.5231 75.8821 20.6301 72.5123 18.0303C72.2361 17.8163 71.9809 17.5929 71.7397 17.3599C72.2501 16.1891 72.9492 15.0183 74.4034 13.8066Z" fill="url(#paint40_linear_2_4069)"/>
<path d="M71.6281 8.768C69.2441 11.2733 69.8174 15.2327 72.904 17.6153C75.9907 19.9978 80.4267 19.9002 82.8107 17.3949C85.1947 14.8896 84.6215 10.9302 81.5348 8.54768C78.4446 6.16513 74.0087 6.26584 71.6281 8.768Z" fill="url(#paint41_linear_2_4069)"/>
<path d="M72.3484 9.32456C70.272 11.5057 70.7719 14.9584 73.46 17.0325C76.1517 19.1066 80.0144 19.0216 82.0908 16.8405C84.1672 14.6594 83.6673 11.2067 80.9792 9.13258C78.2875 7.05846 74.4248 7.14344 72.3484 9.32456Z" fill="url(#paint42_linear_2_4069)"/>
<path d="M59.5052 22.412C58.7956 23.158 60.491 25.5154 63.2945 27.6776C66.098 29.8398 68.9435 30.9886 69.6531 30.2427C70.3627 29.4968 68.6673 27.1394 65.8638 24.9772C63.0638 22.8149 60.2148 21.6661 59.5052 22.412Z" fill="url(#paint43_linear_2_4069)"/>
<path d="M64.1407 24.8418L66.3185 26.5225C67.4756 27.4164 67.9195 28.8547 67.4336 30.1546L66.9722 31.3915C66.8044 31.8479 66.1752 32.0021 65.7697 31.6905L58.5477 26.1197C58.1422 25.8081 58.2191 25.2258 58.691 25.0055L59.9774 24.4075C61.3372 23.7749 62.9802 23.948 64.1407 24.8418Z" fill="url(#paint44_linear_2_4069)"/>
<path d="M58.2221 25.4145C57.551 26.1195 58.8863 28.1338 61.1969 29.9183C63.511 31.7029 65.9265 32.5779 66.5977 31.876C67.2689 31.171 65.9335 29.1567 63.6229 27.3721C61.3088 25.5844 58.8898 24.7095 58.2221 25.4145Z" fill="url(#paint45_linear_2_4069)"/>
<path d="M59.2258 26.1888C58.7155 26.7239 59.7292 28.2567 61.4875 29.6132C63.2458 30.9697 65.081 31.6338 65.5914 31.1019C66.1018 30.5668 65.088 29.0341 63.3297 27.6775C61.5714 26.321 59.7362 25.6538 59.2258 26.1888Z" fill="url(#paint46_linear_2_4069)"/>
<g opacity="0.3">
<path opacity="0.3" d="M74.4034 13.8065C77.2279 11.446 79.8357 11.4838 82.4749 10.7441C83.7613 12.7238 83.6914 15.1599 82.0904 16.8437C80.0139 19.0249 76.1512 19.1098 73.4596 17.0357C73.0681 16.7336 72.722 16.4 72.4214 16.0443C72.8793 15.3078 73.4946 14.565 74.4034 13.8065Z" fill="url(#paint47_linear_2_4069)"/>
</g>
<path opacity="0.4" d="M59.6415 25.9961C59.6415 25.9961 56.5199 34.1493 49.8187 34.1308C47.4557 34.1229 44.6137 33.7528 42.3345 34.3608C38.8564 35.2888 38.4089 38.7388 36.9338 40.8988C34.3295 44.7163 29.1559 49.2265 22.8952 48.97C18.1027 48.7744 12.4957 51.2199 10.7164 57.8503C10.594 58.3024 10.7548 58.773 11.1533 59.1246C11.5518 59.4762 12.1391 59.6666 12.7509 59.6454L48.7246 58.3923C49.7803 58.3553 50.759 57.9481 51.3638 57.2925C52.416 56.1504 53.4856 54.9079 54.0065 53.5596C55.0622 50.8339 51.0806 48.4968 51.8567 45.7685C52.1398 44.7718 53.1605 44.3753 54.2372 43.8967C57.9566 42.2471 60.1938 39.7805 62.1304 36.9279C63.6615 34.6728 65.3778 31.9709 65.5072 29.3853C65.5107 29.388 63.4168 26.2922 59.6415 25.9961Z" fill="#06BF97"/>
<path d="M71.2674 45.1351C71.2988 45.1068 72.0364 44.9431 72.0364 44.9431C72.0364 44.9431 72.2566 44.2035 72.6866 44.5843C73.1166 44.962 73.1271 45.4656 72.788 45.4845C72.4489 45.5033 71.7672 45.3963 71.4387 45.5474C71.1101 45.6985 71.2674 45.1351 71.2674 45.1351Z" fill="url(#paint48_linear_2_4069)"/>
<path d="M81.2265 36.5182L80.5344 35.9674C80.4015 35.8604 80.3281 35.7061 80.3351 35.5456C80.3456 35.3127 80.3281 34.9697 80.1848 34.7871C79.9506 34.4976 79.0627 34.7336 79.0243 34.7871C78.8495 35.0232 78.7866 35.4292 79.3144 35.5802C79.8387 35.7313 79.9751 35.98 79.9751 35.98L80.807 37.0375L81.2265 36.5182Z" fill="url(#paint49_linear_2_4069)"/>
<path d="M77.8604 85.3366C77.9269 85.1541 78.626 85.0691 78.9161 85.3618C79.0629 85.5066 79.1364 85.7741 79.021 85.8748C78.979 85.9126 79.1119 86.0039 78.9755 85.9881C78.5246 85.9346 77.794 85.516 77.8604 85.3366Z" fill="url(#paint50_linear_2_4069)"/>
<path d="M78.5527 85.4945H79.2554C78.9897 85.1074 79.2239 84.0121 79.2239 84.0121L78.4653 84.0656C78.4653 84.0656 78.5003 84.3804 78.5737 84.843C78.5982 85.0036 78.5842 85.2428 78.5527 85.4945Z" fill="url(#paint51_linear_2_4069)"/>
<path d="M76.7279 61.5333C76.4028 62.5027 75.9379 64.0669 75.6373 66.0309C74.7809 71.63 76.5986 71.8063 76.2595 78.0098C76.1512 79.9895 78.1647 84.5563 78.3429 84.657C78.4303 84.6633 78.5212 84.6696 78.6226 84.6664C78.7974 84.6601 79.0456 84.6381 79.3322 84.5594C79.6503 84.5091 80.8004 81.7048 80.5347 80.0367C80.2131 78.0286 80.6081 76.6312 80.5102 75.0575C80.276 71.2838 80.4963 67.2993 80.7864 67.2867C80.9717 67.2772 81.2758 68.8541 81.5974 70.5096C81.9679 72.4106 82.0274 73.2793 82.8069 74.107C83.3347 74.6673 83.9674 74.9694 84.4044 75.1331C89.7353 77.1379 88.9942 77.1537 90.1547 78.0192C90.347 78.164 90.8678 78.5668 91.2349 78.4189C91.4796 78.3214 91.553 78.0161 91.5845 77.8807C91.8292 76.7917 91.0776 74.5225 89.1025 73.6695C88.3929 73.3642 88.1972 73.5248 87.512 73.1471C86.6626 72.675 86.0543 71.9039 85.7922 71.1894C85.3342 69.9305 86.0543 69.1468 86.4493 67.4755C86.5263 67.1545 86.4109 64.2904 86.0683 62.3988C85.6244 59.925 76.7279 61.5333 76.7279 61.5333Z" fill="url(#paint52_linear_2_4069)"/>
<path d="M78.5036 85.4101C78.5036 85.4101 79.36 85.344 79.4264 85.5045C79.4929 85.665 79.4999 86.071 78.9755 85.9892C78.4512 85.9105 78.4372 85.5297 78.5036 85.4101Z" fill="url(#paint53_linear_2_4069)"/>
<path d="M71.4841 44.9319C71.5576 45.1428 71.6345 45.3537 71.7079 45.5677C71.1695 45.9391 69.6909 47.047 69.8657 48.2335C70.1208 49.952 73.6759 50.7294 75.9271 50.7262C76.5458 50.7262 80.5519 50.7168 82.436 48.1296C84.0895 45.8541 83.0652 43.0152 82.2193 40.6735C81.5656 38.8638 80.6637 37.501 80.0135 36.6449C80.3876 36.3585 80.7581 36.0752 81.1321 35.7888C82.485 36.5253 85.0088 38.1525 86.6413 41.0701C88.1444 43.7611 88.2318 46.3766 88.2143 47.368C88.1934 48.5986 87.9906 48.9354 87.9591 50.7168C87.9277 52.3597 88.0745 53.3826 88.3017 55.2931C89.0917 62.0095 88.8995 63.2118 88.3192 64.4078C87.8298 65.415 87.4103 66.2837 86.3896 66.803C84.3446 67.8448 82.6353 66.1043 78.1818 66.4253C76.6332 66.5355 76.0844 66.803 75.4482 66.4001C75.0742 66.1641 74.3855 65.5189 74.6093 61.3329C74.8015 57.7575 75.3783 56.8069 74.5498 55.7809C73.8227 54.8808 73.0782 55.2364 70.8374 54.2167C69.3728 53.5494 66.2092 52.1111 65.9296 49.7443C65.7268 48.0289 67.1356 46.6787 67.3663 46.4553C68.9813 44.9099 71.1381 44.9256 71.4841 44.9319Z" fill="#06BF97"/>
<path d="M79.4889 48.419C79.4609 47.9721 79.7895 47.629 79.8594 47.5566C80.1566 47.2482 80.223 47.2104 80.3383 47.1695L80.4991 47.1191C80.4991 47.1191 80.5096 47.1191 80.5166 47.116C80.6145 47.1065 80.9221 47.16 80.9815 47.1821C81.1703 47.2608 81.2018 48.0287 80.8836 49.0453C80.8836 49.0862 80.8801 49.1271 80.8767 49.1681C80.8732 49.2279 80.8697 49.2751 80.8697 49.316C80.8627 49.4954 81.0375 49.637 81.2367 49.6087C82.2504 49.4702 82.1071 49.6905 82.0757 49.7598C81.9953 49.9234 81.0584 50.3892 79.9293 50.641C78.5276 50.9337 77.6502 50.8991 77.7655 50.7071C77.811 50.6347 78.5066 50.3074 79.3246 50.0651C79.5099 50.0115 79.6567 49.8825 79.7161 49.7157C79.7965 49.4891 79.9538 49.1775 79.9923 49.0831C79.9258 49.0327 79.5064 48.7495 79.4889 48.419Z" fill="url(#paint54_linear_2_4069)"/>
<path d="M80.1603 46.7478C80.0834 47.0657 80.1638 47.4403 80.2337 47.5126C80.2442 47.5221 80.2932 47.5787 80.3316 47.6637C80.3351 47.6763 80.3386 47.6889 80.3421 47.7046C80.3701 47.9218 79.9576 48.0855 80.003 48.1893C80.038 48.2649 80.3001 48.2271 80.3141 48.2869C80.3281 48.3467 80.1009 48.4159 80.1149 48.4852C80.1254 48.5387 80.2617 48.5198 80.3211 48.6079C80.3491 48.652 80.3316 48.6803 80.3456 48.7999C80.3526 48.8692 80.3701 48.9447 80.384 48.9856C80.4609 49.1965 80.7895 49.335 80.8734 49.2752C80.8979 49.2594 80.8839 49.2374 80.9224 49.1713C80.9224 49.1713 80.9573 49.1115 81.0237 49.0454C81.1216 48.9541 81.3139 48.9101 81.5166 48.8345C81.8907 48.6898 82.0235 48.5292 82.0654 48.4757C82.0794 48.4569 82.0899 48.4411 82.0969 48.4317C82.2402 48.2145 82.3241 47.8683 82.2612 47.6322C82.1528 47.2388 81.6669 47.3175 81.3943 46.8926C81.0762 46.4016 81.4642 45.898 81.2545 45.791C81.0202 45.6683 80.3071 46.1561 80.1603 46.7478Z" fill="#26264F"/>
<path d="M80.1494 48.1415C80.2613 48.0502 80.3906 48.1824 80.3557 48.3209C80.3207 48.4594 80.1355 48.5727 79.9991 48.516C79.8628 48.4594 79.9956 48.2611 80.1494 48.1415Z" fill="url(#paint55_linear_2_4069)"/>
<path d="M91.049 78.2559L91.4964 78.577L91.797 78.2843L91.3881 77.9254C91.3077 77.8562 91.1818 77.8499 91.0909 77.9129L91.049 77.9443C90.9371 78.023 90.9371 78.1741 91.049 78.2559Z" fill="url(#paint56_linear_2_4069)"/>
<path d="M91.8817 78.8189C91.8922 78.523 92.0565 78.4317 91.9796 78.2901C91.9202 78.1768 91.7489 78.1044 91.6126 78.1296C91.4203 78.1642 91.3364 78.3814 91.3189 78.4317C91.1931 78.7653 91.4693 78.951 91.3155 79.228C91.284 79.2847 91.2246 79.3602 91.2036 79.4861C91.1931 79.5396 91.1721 79.6749 91.2351 79.7096C91.3085 79.7505 91.4623 79.6403 91.6056 79.5333C91.7769 79.4074 91.8642 79.3445 91.9062 79.2375C91.9691 79.0895 91.8747 79.0486 91.8817 78.8189Z" fill="url(#paint57_linear_2_4069)"/>
<path opacity="0.3" d="M82.6562 62.698C80.8874 61.9835 78.9404 63.6547 78.3531 63.0945C77.6854 62.4556 80.3736 60.457 80.1079 57.7188C79.9541 56.12 78.7865 54.1843 77.0352 53.6084C75.207 53.0072 73.7738 54.2252 72.2951 53.2936C71.5016 52.7932 71.7952 52.3714 70.8899 51.5531C69.3378 50.1557 67.6739 50.6719 66.7615 49.7339C66.4329 49.3972 66.1847 48.8527 66.2756 47.9116C66.0204 48.4341 65.8422 49.0604 65.9226 49.7465C66.2022 52.1165 69.3658 53.5548 70.8305 54.2189C73.0677 55.2355 73.8157 54.883 74.5428 55.7832C75.3713 56.8092 74.7945 57.7597 74.6023 61.3351C74.3785 65.5211 75.0672 66.1664 75.4412 66.4024C76.0774 66.8021 76.6262 66.5377 78.1748 66.4276C82.6283 66.1066 84.3376 67.847 86.3826 66.8053C86.7391 66.6227 87.0223 66.3993 87.26 66.1412C86.1204 66.1317 85.4038 65.8422 84.9354 65.4676C83.8517 64.599 84.0021 63.2393 82.6562 62.698Z" fill="#06BF97"/>
<defs>
<linearGradient id="paint0_linear_2_4069" x1="13.643" y1="63.8784" x2="45.4892" y2="63.8784" gradientUnits="userSpaceOnUse">
<stop stop-color="#311944"/>
<stop offset="1" stop-color="#893976"/>
</linearGradient>
<linearGradient id="paint1_linear_2_4069" x1="45.4892" y1="56.5032" x2="63.084" y2="56.5032" gradientUnits="userSpaceOnUse">
<stop stop-color="#311944"/>
<stop offset="1" stop-color="#893976"/>
</linearGradient>
<linearGradient id="paint2_linear_2_4069" x1="65.9695" y1="45.0845" x2="43.7552" y2="73.4165" gradientUnits="userSpaceOnUse">
<stop stop-color="#FFC444"/>
<stop offset="0.9964" stop-color="#F36F56"/>
</linearGradient>
<linearGradient id="paint3_linear_2_4069" x1="30.7723" y1="70.8206" x2="63.128" y2="70.8206" gradientUnits="userSpaceOnUse">
<stop stop-color="#FFC444"/>
<stop offset="0.9964" stop-color="#F36F56"/>
</linearGradient>
<linearGradient id="paint4_linear_2_4069" x1="6.48065" y1="69.513" x2="28.0183" y2="69.513" gradientUnits="userSpaceOnUse">
<stop stop-color="#FFC444"/>
<stop offset="0.9964" stop-color="#F36F56"/>
</linearGradient>
<linearGradient id="paint5_linear_2_4069" x1="30.7723" y1="70.8209" x2="63.128" y2="70.8209" gradientUnits="userSpaceOnUse">
<stop stop-color="#FFC444"/>
<stop offset="0.9964" stop-color="#F36F56"/>
</linearGradient>
<linearGradient id="paint6_linear_2_4069" x1="13.6176" y1="69.5127" x2="30.7721" y2="69.5127" gradientUnits="userSpaceOnUse">
<stop stop-color="#FFC444"/>
<stop offset="0.9964" stop-color="#F36F56"/>
</linearGradient>
<linearGradient id="paint7_linear_2_4069" x1="20.9725" y1="55.1403" x2="-2.15905" y2="84.6422" gradientUnits="userSpaceOnUse">
<stop stop-color="#FFC444"/>
<stop offset="0.9964" stop-color="#F36F56"/>
</linearGradient>
<linearGradient id="paint8_linear_2_4069" x1="29.9723" y1="16.2478" x2="17.0129" y2="20.8671" gradientUnits="userSpaceOnUse">
<stop stop-color="#FCB148"/>
<stop offset="0.0520724" stop-color="#FDBA46"/>
<stop offset="0.1424" stop-color="#FFC244"/>
<stop offset="0.3183" stop-color="#FFC444"/>
<stop offset="0.4849" stop-color="#FDB946"/>
<stop offset="0.7754" stop-color="#F99C4D"/>
<stop offset="0.8658" stop-color="#F8924F"/>
<stop offset="1" stop-color="#F8924F"/>
</linearGradient>
<linearGradient id="paint9_linear_2_4069" x1="40.6844" y1="4.38066" x2="30.7814" y2="28.6461" gradientUnits="userSpaceOnUse">
<stop stop-color="#FFDB44"/>
<stop offset="1" stop-color="#FEEF06"/>
</linearGradient>
<linearGradient id="paint10_linear_2_4069" x1="38.5095" y1="29.1747" x2="36.6489" y2="17.8858" gradientUnits="userSpaceOnUse">
<stop stop-color="#FCB148"/>
<stop offset="0.0520724" stop-color="#FDBA46"/>
<stop offset="0.1424" stop-color="#FFC244"/>
<stop offset="0.3183" stop-color="#FFC444"/>
<stop offset="0.4849" stop-color="#FDB946"/>
<stop offset="0.7754" stop-color="#F99C4D"/>
<stop offset="0.8658" stop-color="#F8924F"/>
<stop offset="1" stop-color="#F8924F"/>
</linearGradient>
<linearGradient id="paint11_linear_2_4069" x1="33.6737" y1="11.0156" x2="41.5656" y2="29.6224" gradientUnits="userSpaceOnUse">
<stop stop-color="#FCB148"/>
<stop offset="0.0520724" stop-color="#FDBA46"/>
<stop offset="0.1424" stop-color="#FFC244"/>
<stop offset="0.3183" stop-color="#FFC444"/>
<stop offset="0.4849" stop-color="#FDB946"/>
<stop offset="0.7754" stop-color="#F99C4D"/>
<stop offset="0.8658" stop-color="#F8924F"/>
<stop offset="1" stop-color="#F8924F"/>
</linearGradient>
<linearGradient id="paint12_linear_2_4069" x1="33.2992" y1="7.149" x2="37.1799" y2="23.3026" gradientUnits="userSpaceOnUse">
<stop stop-color="#FFDB44"/>
<stop offset="1" stop-color="#FEEF06"/>
</linearGradient>
<linearGradient id="paint13_linear_2_4069" x1="30.9084" y1="12.1778" x2="38.7844" y2="30.7471" gradientUnits="userSpaceOnUse">
<stop stop-color="#FCB148"/>
<stop offset="0.0520724" stop-color="#FDBA46"/>
<stop offset="0.1424" stop-color="#FFC244"/>
<stop offset="0.3183" stop-color="#FFC444"/>
<stop offset="0.4849" stop-color="#FDB946"/>
<stop offset="0.7754" stop-color="#F99C4D"/>
<stop offset="0.8658" stop-color="#F8924F"/>
<stop offset="1" stop-color="#F8924F"/>
</linearGradient>
<linearGradient id="paint14_linear_2_4069" x1="16.0561" y1="33.3724" x2="5.78889" y2="37.0321" gradientUnits="userSpaceOnUse">
<stop stop-color="#FCB148"/>
<stop offset="0.0520724" stop-color="#FDBA46"/>
<stop offset="0.1424" stop-color="#FFC244"/>
<stop offset="0.3183" stop-color="#FFC444"/>
<stop offset="0.4849" stop-color="#FDB946"/>
<stop offset="0.7754" stop-color="#F99C4D"/>
<stop offset="0.8658" stop-color="#F8924F"/>
<stop offset="1" stop-color="#F8924F"/>
</linearGradient>
<linearGradient id="paint15_linear_2_4069" x1="24.5429" y1="23.9701" x2="16.6972" y2="43.1945" gradientUnits="userSpaceOnUse">
<stop stop-color="#FFDB44"/>
<stop offset="1" stop-color="#FEEF06"/>
</linearGradient>
<linearGradient id="paint16_linear_2_4069" x1="22.8198" y1="43.6144" x2="21.3458" y2="34.6707" gradientUnits="userSpaceOnUse">
<stop stop-color="#FCB148"/>
<stop offset="0.0520724" stop-color="#FDBA46"/>
<stop offset="0.1424" stop-color="#FFC244"/>
<stop offset="0.3183" stop-color="#FFC444"/>
<stop offset="0.4849" stop-color="#FDB946"/>
<stop offset="0.7754" stop-color="#F99C4D"/>
<stop offset="0.8658" stop-color="#F8924F"/>
<stop offset="1" stop-color="#F8924F"/>
</linearGradient>
<linearGradient id="paint17_linear_2_4069" x1="18.988" y1="29.226" x2="25.2404" y2="43.9674" gradientUnits="userSpaceOnUse">
<stop stop-color="#FCB148"/>
<stop offset="0.0520724" stop-color="#FDBA46"/>
<stop offset="0.1424" stop-color="#FFC244"/>
<stop offset="0.3183" stop-color="#FFC444"/>
<stop offset="0.4849" stop-color="#FDB946"/>
<stop offset="0.7754" stop-color="#F99C4D"/>
<stop offset="0.8658" stop-color="#F8924F"/>
<stop offset="1" stop-color="#F8924F"/>
</linearGradient>
<linearGradient id="paint18_linear_2_4069" x1="18.6914" y1="26.1628" x2="21.7659" y2="38.9607" gradientUnits="userSpaceOnUse">
<stop stop-color="#FFDB44"/>
<stop offset="1" stop-color="#FEEF06"/>
</linearGradient>
<linearGradient id="paint19_linear_2_4069" x1="16.7974" y1="30.1473" x2="23.0372" y2="44.859" gradientUnits="userSpaceOnUse">
<stop stop-color="#FCB148"/>
<stop offset="0.0520724" stop-color="#FDBA46"/>
<stop offset="0.1424" stop-color="#FFC244"/>
<stop offset="0.3183" stop-color="#FFC444"/>
<stop offset="0.4849" stop-color="#FDB946"/>
<stop offset="0.7754" stop-color="#F99C4D"/>
<stop offset="0.8658" stop-color="#F8924F"/>
<stop offset="1" stop-color="#F8924F"/>
</linearGradient>
<linearGradient id="paint20_linear_2_4069" x1="16.4948" y1="79.873" x2="16.0606" y2="88.5527" gradientUnits="userSpaceOnUse">
<stop stop-color="#444B8C"/>
<stop offset="0.9964" stop-color="#26264F"/>
</linearGradient>
<linearGradient id="paint21_linear_2_4069" x1="15.5842" y1="83.4598" x2="15.3255" y2="76.9651" gradientUnits="userSpaceOnUse">
<stop stop-color="#FFC444"/>
<stop offset="0.9964" stop-color="#F36F56"/>
</linearGradient>
<linearGradient id="paint22_linear_2_4069" x1="6.80678" y1="79.3885" x2="6.37263" y2="88.068" gradientUnits="userSpaceOnUse">
<stop stop-color="#444B8C"/>
<stop offset="0.9964" stop-color="#26264F"/>
</linearGradient>
<linearGradient id="paint23_linear_2_4069" x1="7.07722" y1="83.7994" x2="6.81847" y2="77.3047" gradientUnits="userSpaceOnUse">
<stop stop-color="#FFC444"/>
<stop offset="0.9964" stop-color="#F36F56"/>
</linearGradient>
<linearGradient id="paint24_linear_2_4069" x1="16.5862" y1="73.3796" x2="10.4942" y2="72.3224" gradientUnits="userSpaceOnUse">
<stop stop-color="#444B8C"/>
<stop offset="0.9964" stop-color="#26264F"/>
</linearGradient>
<linearGradient id="paint25_linear_2_4069" x1="16.0847" y1="67.5823" x2="0.192658" y2="83.9858" gradientUnits="userSpaceOnUse">
<stop stop-color="#444B8C"/>
<stop offset="0.9964" stop-color="#26264F"/>
</linearGradient>
<linearGradient id="paint26_linear_2_4069" x1="6.76072" y1="58.3242" x2="10.0021" y2="53.224" gradientUnits="userSpaceOnUse">
<stop stop-color="#444B8C"/>
<stop offset="0.9964" stop-color="#26264F"/>
</linearGradient>
<linearGradient id="paint27_linear_2_4069" x1="24.6514" y1="54.0311" x2="13.2429" y2="54.0311" gradientUnits="userSpaceOnUse">
<stop stop-color="#AA80F9"/>
<stop offset="0.9964" stop-color="#6165D7"/>
</linearGradient>
<linearGradient id="paint28_linear_2_4069" x1="16.6977" y1="49.5322" x2="10.8608" y2="42.1725" gradientUnits="userSpaceOnUse">
<stop stop-color="#FFC444"/>
<stop offset="0.9964" stop-color="#F36F56"/>
</linearGradient>
<linearGradient id="paint29_linear_2_4069" x1="-19.3064" y1="133.399" x2="-21.8494" y2="141.143" gradientUnits="userSpaceOnUse">
<stop stop-color="#FFC444"/>
<stop offset="0.9964" stop-color="#F36F56"/>
</linearGradient>
<linearGradient id="paint30_linear_2_4069" x1="24.6512" y1="53.9919" x2="14.2082" y2="53.9919" gradientUnits="userSpaceOnUse">
<stop stop-color="#AA80F9"/>
<stop offset="0.9964" stop-color="#6165D7"/>
</linearGradient>
<linearGradient id="paint31_linear_2_4069" x1="21.1235" y1="54.3022" x2="14.8302" y2="60.0946" gradientUnits="userSpaceOnUse">
<stop stop-color="#FFC444"/>
<stop offset="0.9964" stop-color="#F36F56"/>
</linearGradient>
<linearGradient id="paint32_linear_2_4069" x1="48.7896" y1="59.1868" x2="52.8626" y2="59.1868" gradientUnits="userSpaceOnUse">
<stop stop-color="#444B8C"/>
<stop offset="0.9964" stop-color="#26264F"/>
</linearGradient>
<linearGradient id="paint33_linear_2_4069" x1="78.1392" y1="35.391" x2="70.3313" y2="27.9616" gradientUnits="userSpaceOnUse">
<stop stop-color="#444B8C"/>
<stop offset="0.9964" stop-color="#26264F"/>
</linearGradient>
<linearGradient id="paint34_linear_2_4069" x1="61.1755" y1="22.3031" x2="53.3669" y2="14.873" gradientUnits="userSpaceOnUse">
<stop stop-color="#444B8C"/>
<stop offset="0.9964" stop-color="#26264F"/>
</linearGradient>
<linearGradient id="paint35_linear_2_4069" x1="63.5795" y1="47.8137" x2="70.1724" y2="35.1554" gradientUnits="userSpaceOnUse">
<stop stop-color="#FFC444"/>
<stop offset="0.9964" stop-color="#F36F56"/>
</linearGradient>
<linearGradient id="paint36_linear_2_4069" x1="44.5507" y1="37.9039" x2="51.1438" y2="25.2452" gradientUnits="userSpaceOnUse">
<stop stop-color="#FFC444"/>
<stop offset="0.9964" stop-color="#F36F56"/>
</linearGradient>
<linearGradient id="paint37_linear_2_4069" x1="75.7539" y1="23.7425" x2="74.292" y2="-7.78808" gradientUnits="userSpaceOnUse">
<stop stop-color="#FFC444"/>
<stop offset="0.9964" stop-color="#F36F56"/>
</linearGradient>
<linearGradient id="paint38_linear_2_4069" x1="78.4519" y1="23.6174" x2="76.9899" y2="-7.91249" gradientUnits="userSpaceOnUse">
<stop stop-color="#FFC444"/>
<stop offset="0.9964" stop-color="#F36F56"/>
</linearGradient>
<linearGradient id="paint39_linear_2_4069" x1="83.3202" y1="17.7891" x2="72.2157" y2="7.22285" gradientUnits="userSpaceOnUse">
<stop offset="0.00359712" stop-color="#EBEFF2"/>
<stop offset="1" stop-color="white"/>
</linearGradient>
<linearGradient id="paint40_linear_2_4069" x1="83.1485" y1="17.9695" x2="72.0436" y2="7.40285" gradientUnits="userSpaceOnUse">
<stop offset="0.00359712" stop-color="#EBEFF2"/>
<stop offset="1" stop-color="white"/>
</linearGradient>
<linearGradient id="paint41_linear_2_4069" x1="78.6639" y1="8.1093" x2="76.7886" y2="16.0727" gradientUnits="userSpaceOnUse">
<stop offset="0.00359712" stop-color="#EBEFF2"/>
<stop offset="1" stop-color="white"/>
</linearGradient>
<linearGradient id="paint42_linear_2_4069" x1="75.8893" y1="24.1656" x2="77.7363" y2="5.17848" gradientUnits="userSpaceOnUse">
<stop stop-color="#444B8C"/>
<stop offset="0.9964" stop-color="#26264F"/>
</linearGradient>
<linearGradient id="paint43_linear_2_4069" x1="61.0202" y1="30.7058" x2="64.3541" y2="25.6476" gradientUnits="userSpaceOnUse">
<stop stop-color="#FFC444"/>
<stop offset="0.9964" stop-color="#F36F56"/>
</linearGradient>
<linearGradient id="paint44_linear_2_4069" x1="67.8773" y1="30.5196" x2="60.266" y2="23.2772" gradientUnits="userSpaceOnUse">
<stop stop-color="#AA80F9"/>
<stop offset="0.9964" stop-color="#6165D7"/>
</linearGradient>
<linearGradient id="paint45_linear_2_4069" x1="63.2837" y1="26.7127" x2="60.58" y2="34.069" gradientUnits="userSpaceOnUse">
<stop stop-color="#AA80F9"/>
<stop offset="0.9964" stop-color="#6165D7"/>
</linearGradient>
<linearGradient id="paint46_linear_2_4069" x1="63.074" y1="27.1762" x2="61.0192" y2="32.767" gradientUnits="userSpaceOnUse">
<stop stop-color="#444B8C"/>
<stop offset="0.9964" stop-color="#26264F"/>
</linearGradient>
<linearGradient id="paint47_linear_2_4069" x1="76.7852" y1="24.2526" x2="78.6321" y2="5.26647" gradientUnits="userSpaceOnUse">
<stop stop-color="#444B8C"/>
<stop offset="0.9964" stop-color="#26264F"/>
</linearGradient>
<linearGradient id="paint48_linear_2_4069" x1="75.6075" y1="45.1449" x2="125.176" y2="47.1396" gradientUnits="userSpaceOnUse">
<stop stop-color="#FFC444"/>
<stop offset="0.9964" stop-color="#F36F56"/>
</linearGradient>
<linearGradient id="paint49_linear_2_4069" x1="75.1554" y1="35.6742" x2="115.757" y2="37.3081" gradientUnits="userSpaceOnUse">
<stop stop-color="#FFC444"/>
<stop offset="0.9964" stop-color="#F36F56"/>
</linearGradient>
<linearGradient id="paint50_linear_2_4069" x1="77.5717" y1="84.7483" x2="78.7848" y2="85.9468" gradientUnits="userSpaceOnUse">
<stop stop-color="#444B8C"/>
<stop offset="0.9964" stop-color="#26264F"/>
</linearGradient>
<linearGradient id="paint51_linear_2_4069" x1="78.861" y1="85.8228" x2="78.861" y2="83.7237" gradientUnits="userSpaceOnUse">
<stop stop-color="#FFC444"/>
<stop offset="0.9964" stop-color="#F36F56"/>
</linearGradient>
<linearGradient id="paint52_linear_2_4069" x1="79.4005" y1="86.9299" x2="86.5531" y2="54.8559" gradientUnits="userSpaceOnUse">
<stop stop-color="#444B8C"/>
<stop offset="0.9964" stop-color="#26264F"/>
</linearGradient>
<linearGradient id="paint53_linear_2_4069" x1="77.7062" y1="84.6133" x2="78.9193" y2="85.8117" gradientUnits="userSpaceOnUse">
<stop stop-color="#444B8C"/>
<stop offset="0.9964" stop-color="#26264F"/>
</linearGradient>
<linearGradient id="paint54_linear_2_4069" x1="74.6254" y1="48.8358" x2="115.227" y2="50.4697" gradientUnits="userSpaceOnUse">
<stop stop-color="#FFC444"/>
<stop offset="0.9964" stop-color="#F36F56"/>
</linearGradient>
<linearGradient id="paint55_linear_2_4069" x1="74.6535" y1="48.1422" x2="115.253" y2="49.7759" gradientUnits="userSpaceOnUse">
<stop stop-color="#FFC444"/>
<stop offset="0.9964" stop-color="#F36F56"/>
</linearGradient>
<linearGradient id="paint56_linear_2_4069" x1="92.2682" y1="79.2117" x2="87.7816" y2="73.0675" gradientUnits="userSpaceOnUse">
<stop stop-color="#FFC444"/>
<stop offset="0.9964" stop-color="#F36F56"/>
</linearGradient>
<linearGradient id="paint57_linear_2_4069" x1="91.9606" y1="79.7926" x2="90.2988" y2="75.2633" gradientUnits="userSpaceOnUse">
<stop stop-color="#444B8C"/>
<stop offset="0.9964" stop-color="#26264F"/>
</linearGradient>
</defs>
</svg>
