<svg width="17" height="19" viewBox="0 0 17 19" fill="none" xmlns="http://www.w3.org/2000/svg">
<path d="M11.856 12.032C12.3767 11.7523 12.9726 11.5931 13.6072 11.5931H13.6094C13.6739 11.5931 13.704 11.5157 13.6567 11.4726C12.9967 10.8803 12.2428 10.4019 11.4258 10.0571C11.4172 10.0528 11.4086 10.0506 11.4 10.0463C12.7359 9.07606 13.6051 7.49915 13.6051 5.72002C13.6051 2.77272 11.2214 0.384766 8.28056 0.384766C5.33972 0.384766 2.95822 2.77272 2.95822 5.72002C2.95822 7.49915 3.82735 9.07606 5.16546 10.0463C5.15686 10.0506 5.14825 10.0528 5.13965 10.0571C4.17801 10.4637 3.31533 11.0467 2.57313 11.791C1.83522 12.5276 1.24774 13.4008 0.843477 14.3618C0.445728 15.303 0.231066 16.3113 0.210991 17.3328C0.210417 17.3558 0.214444 17.3786 0.222836 17.4C0.231228 17.4214 0.243814 17.4408 0.259853 17.4573C0.275892 17.4737 0.295059 17.4868 0.316225 17.4957C0.337391 17.5046 0.360128 17.5092 0.383096 17.5092H1.67173C1.76424 17.5092 1.84169 17.4339 1.84384 17.3414C1.88686 15.6806 2.55162 14.1252 3.72839 12.9463C4.94388 11.7265 6.56166 11.0553 8.28271 11.0553C9.50251 11.0553 10.6728 11.393 11.6818 12.0255C11.7077 12.0418 11.7375 12.051 11.768 12.0521C11.7986 12.0532 11.829 12.0463 11.856 12.032ZM8.28271 9.42027C7.29741 9.42027 6.3702 9.03519 5.67102 8.33601C5.32701 7.9929 5.0543 7.58511 4.86858 7.13614C4.68286 6.68717 4.58781 6.20588 4.58891 5.72002C4.58891 4.73257 4.974 3.8032 5.67102 3.10402C6.36805 2.40485 7.29526 2.01976 8.28271 2.01976C9.27017 2.01976 10.1952 2.40485 10.8944 3.10402C11.2384 3.44714 11.5111 3.85493 11.6968 4.3039C11.8826 4.75287 11.9776 5.23415 11.9765 5.72002C11.9765 6.70747 11.5914 7.63684 10.8944 8.33601C10.1952 9.03519 9.26801 9.42027 8.28271 9.42027ZM16.1952 14.5404H14.3881V12.7333C14.3881 12.6386 14.3107 12.5612 14.216 12.5612H13.0113C12.9166 12.5612 12.8392 12.6386 12.8392 12.7333V14.5404H11.0321C10.9374 14.5404 10.86 14.6178 10.86 14.7125V15.9172C10.86 16.0119 10.9374 16.0893 11.0321 16.0893H12.8392V17.8964C12.8392 17.9911 12.9166 18.0685 13.0113 18.0685H14.216C14.3107 18.0685 14.3881 17.9911 14.3881 17.8964V16.0893H16.1952C16.2899 16.0893 16.3673 16.0119 16.3673 15.9172V14.7125C16.3673 14.6178 16.2899 14.5404 16.1952 14.5404Z" fill="#4D4A4A"/>
</svg>
