<svg width="22" height="15" viewBox="0 0 22 15" fill="none" xmlns="http://www.w3.org/2000/svg">
<path d="M21.1149 9.73238C21.1149 10.2475 20.0846 10.591 18.8826 10.7627C18.1098 9.30309 16.5644 8.18692 14.7613 7.41419C14.9331 7.15662 15.1048 6.9849 15.2765 6.72732H15.9634C18.625 6.64146 21.1149 8.27278 21.1149 9.73238ZM6.34719 6.64146H5.66032C2.99869 6.64146 0.508789 8.27278 0.508789 9.73238C0.508789 10.2475 1.53909 10.591 2.74112 10.7627C3.51385 9.30309 5.05931 8.18692 6.86234 7.41419L6.34719 6.64146ZM10.8118 7.50005C12.7007 7.50005 14.2462 5.95459 14.2462 4.0657C14.2462 2.17681 12.7007 0.631348 10.8118 0.631348C8.92295 0.631348 7.37749 2.17681 7.37749 4.0657C7.37749 5.95459 8.92295 7.50005 10.8118 7.50005ZM10.8118 8.35864C7.29163 8.35864 3.94314 10.591 3.94314 12.6516C3.94314 14.3688 10.8118 14.3688 10.8118 14.3688C10.8118 14.3688 17.6805 14.3688 17.6805 12.6516C17.6805 10.591 14.3321 8.35864 10.8118 8.35864ZM15.7058 5.78288H15.9634C17.423 5.78288 18.5391 4.66671 18.5391 3.20711C18.5391 1.74751 17.423 0.631348 15.9634 0.631348C15.5341 0.631348 15.1906 0.717207 14.8472 0.888924C15.5341 1.74751 15.9634 2.86368 15.9634 4.0657C15.9634 4.66671 15.8775 5.26772 15.7058 5.78288ZM5.66032 5.78288H5.91789C5.74618 5.26772 5.66032 4.66671 5.66032 4.0657C5.66032 2.86368 6.08961 1.74751 6.77648 0.888924C6.43305 0.717207 6.08961 0.631348 5.66032 0.631348C4.20072 0.631348 3.08455 1.74751 3.08455 3.20711C3.08455 4.66671 4.20072 5.78288 5.66032 5.78288Z" fill="#CFCFCF"/>
</svg>
