<svg width="19" height="20" viewBox="0 0 19 20" fill="none" xmlns="http://www.w3.org/2000/svg">
<path d="M5.75781 2.54008H5.57031C5.67344 2.54008 5.75781 2.45458 5.75781 2.35008V2.54008H12.8828V2.35008C12.8828 2.45458 12.9672 2.54008 13.0703 2.54008H12.8828V4.25008H14.5703V2.35008C14.5703 1.5117 13.8977 0.830078 13.0703 0.830078H5.57031C4.74297 0.830078 4.07031 1.5117 4.07031 2.35008V4.25008H5.75781V2.54008ZM17.5703 4.25008H1.07031C0.655469 4.25008 0.320312 4.5897 0.320312 5.01008V5.77008C0.320312 5.87458 0.404687 5.96008 0.507812 5.96008H1.92344L2.50234 18.3813C2.53984 19.1912 3.20078 19.8301 4 19.8301H14.6406C15.4422 19.8301 16.1008 19.1936 16.1383 18.3813L16.7172 5.96008H18.1328C18.2359 5.96008 18.3203 5.87458 18.3203 5.77008V5.01008C18.3203 4.5897 17.9852 4.25008 17.5703 4.25008ZM14.4602 18.1201H4.18047L3.61328 5.96008H15.0273L14.4602 18.1201Z" fill="#EB5757"/>
</svg>
