<svg width="22" height="20" viewBox="0 0 22 20" fill="none" xmlns="http://www.w3.org/2000/svg">
<path d="M2.92297 5.36896V17.158C2.92443 17.6461 3.11897 18.1137 3.4641 18.4589C3.80924 18.804 4.27692 18.9985 4.76501 19H17.2908C17.7789 18.9985 18.2466 18.804 18.5917 18.4589C18.9369 18.1137 19.1314 17.6461 19.1329 17.158V5.36896" stroke="#06BF97" stroke-linecap="round" stroke-linejoin="round"/>
<path d="M19.3169 1.31641H2.73864C2.02651 1.31641 1.44922 1.8937 1.44922 2.60583V3.71105C1.44922 4.42318 2.02651 5.00047 2.73864 5.00047H19.3169C20.0291 5.00047 20.6064 4.42318 20.6064 3.71105V2.60583C20.6064 1.8937 20.0291 1.31641 19.3169 1.31641Z" stroke="#06BF97" stroke-linejoin="round"/>
<path d="M13.9751 12.3687L11.0278 15.3159L8.08057 12.3687" stroke="#06BF97" stroke-linecap="round" stroke-linejoin="round"/>
<path d="M11.0278 14.2977V8.6846" stroke="#06BF97" stroke-linecap="round" stroke-linejoin="round"/>
</svg>
