<svg width="20" height="20" viewBox="0 0 20 20" fill="none" xmlns="http://www.w3.org/2000/svg">
<path d="M8.92418 3.62231H3.01006C2.56191 3.62231 2.13212 3.80034 1.81523 4.11723C1.49834 4.43412 1.32031 4.86391 1.32031 5.31206V17.1403C1.32031 17.5885 1.49834 18.0182 1.81523 18.3351C2.13212 18.652 2.56191 18.8301 3.01006 18.8301H14.8383C15.2864 18.8301 15.7162 18.652 16.0331 18.3351C16.35 18.0182 16.528 17.5885 16.528 17.1403V11.2262" stroke="#4D4A4A" stroke-width="2" stroke-linecap="round" stroke-linejoin="round"/>
<path d="M15.2605 2.35502C15.5966 2.0189 16.0524 1.83008 16.5278 1.83008C17.0031 1.83008 17.459 2.0189 17.7951 2.35502C18.1312 2.69113 18.32 3.14699 18.32 3.62233C18.32 4.09766 18.1312 4.55353 17.7951 4.88964L9.76878 12.9159L6.38928 13.7608L7.23416 10.3813L15.2605 2.35502Z" stroke="#4D4A4A" stroke-width="2" stroke-linecap="round" stroke-linejoin="round"/>
</svg>
