<svg width="33" height="21" viewBox="0 0 33 21" fill="none" xmlns="http://www.w3.org/2000/svg">
<path d="M31.1144 8.66851H27.3198V5.18825C27.3198 4.64599 26.8173 4.20789 26.1954 4.20789H15.1277L11.0062 0.770524C10.9538 0.727719 10.8848 0.703662 10.813 0.703125H1.88147C1.25957 0.703125 0.75713 1.14122 0.75713 1.68348V19.82C0.75713 20.3623 1.25957 20.8004 1.88147 20.8004H26.4063C26.863 20.8004 27.2776 20.5584 27.4498 20.1877L32.158 10.0165C32.2107 9.90008 32.2388 9.77447 32.2388 9.64886C32.2388 9.1066 31.7364 8.66851 31.1144 8.66851ZM3.28691 2.90892H9.91L14.1122 6.41369H24.79V8.66851H6.87076C6.41399 8.66851 5.99939 8.91053 5.82722 9.28123L3.28691 14.7712V2.90892ZM25.6087 18.5946H4.09503L7.72456 10.7518H29.2417L25.6087 18.5946Z" fill="#06BF97"/>
</svg>
