<svg width="40" height="40" viewBox="0 0 40 40" fill="none" xmlns="http://www.w3.org/2000/svg">
<rect x="0.356812" y="0.454102" width="39.0656" height="39.0656" rx="19.5328" fill="white"/>
<path d="M19.8873 17.0919C18.2932 17.0919 16.9924 18.3928 16.9924 19.9869C16.9924 21.5809 18.2932 22.8818 19.8873 22.8818C21.4814 22.8818 22.7822 21.5809 22.7822 19.9869C22.7822 18.3928 21.4814 17.0919 19.8873 17.0919ZM28.5699 19.9869C28.5699 18.788 28.5808 17.6001 28.5134 16.4034C28.4461 15.0135 28.129 13.7799 27.1127 12.7635C26.0941 11.7449 24.8628 11.43 23.4728 11.3627C22.274 11.2954 21.0861 11.3062 19.8895 11.3062C18.6907 11.3062 17.5027 11.2954 16.3061 11.3627C14.9162 11.43 13.6826 11.7471 12.6663 12.7635C11.6477 13.7821 11.3328 15.0135 11.2655 16.4034C11.1982 17.6022 11.209 18.7902 11.209 19.9869C11.209 21.1835 11.1982 22.3736 11.2655 23.5703C11.3328 24.9602 11.6499 26.1938 12.6663 27.2102C13.6848 28.2288 14.9162 28.5437 16.3061 28.611C17.5049 28.6783 18.6928 28.6675 19.8895 28.6675C21.0883 28.6675 22.2762 28.6783 23.4728 28.611C24.8628 28.5437 26.0963 28.2266 27.1127 27.2102C28.1312 26.1916 28.4461 24.9602 28.5134 23.5703C28.5829 22.3736 28.5699 21.1857 28.5699 19.9869ZM19.8873 24.4412C17.4224 24.4412 15.4331 22.4518 15.4331 19.9869C15.4331 17.5219 17.4224 15.5325 19.8873 15.5325C22.3522 15.5325 24.3415 17.5219 24.3415 19.9869C24.3415 22.4518 22.3522 24.4412 19.8873 24.4412ZM24.524 16.3904C23.9484 16.3904 23.4837 15.9256 23.4837 15.3501C23.4837 14.7746 23.9484 14.3098 24.524 14.3098C25.0995 14.3098 25.5642 14.7746 25.5642 15.3501C25.5644 15.4868 25.5376 15.6221 25.4854 15.7484C25.4332 15.8747 25.3566 15.9894 25.2599 16.0861C25.1633 16.1827 25.0485 16.2593 24.9223 16.3115C24.796 16.3638 24.6606 16.3906 24.524 16.3904Z" fill="#06BF97"/>
</svg>
