<svg width="40" height="40" viewBox="0 0 40 40" fill="none" xmlns="http://www.w3.org/2000/svg">
<rect x="0.422485" y="0.454102" width="39.0656" height="39.0656" rx="19.5328" fill="white"/>
<path d="M14.3189 15.2249C15.4012 15.2249 16.2786 14.3476 16.2786 13.2653C16.2786 12.183 15.4012 11.3056 14.3189 11.3056C13.2366 11.3056 12.3593 12.183 12.3593 13.2653C12.3593 14.3476 13.2366 15.2249 14.3189 15.2249Z" fill="#06BF97"/>
<path d="M18.129 16.7099V27.5821H21.5046V22.2056C21.5046 20.7869 21.7715 19.413 23.5306 19.413C25.2654 19.413 25.2869 21.035 25.2869 22.2951V27.583H28.6644V21.6207C28.6644 18.692 28.0338 16.4412 24.6107 16.4412C22.9672 16.4412 21.8656 17.3431 21.4151 18.1967H21.3694V16.7099H18.129ZM12.6279 16.7099H16.009V27.5821H12.6279V16.7099Z" fill="#06BF97"/>
</svg>
