<svg width="20" height="15" viewBox="0 0 20 15" fill="none" xmlns="http://www.w3.org/2000/svg">
<path d="M0.508789 2.99645C0.508789 2.33435 0.771807 1.69937 1.23998 1.23119C1.70816 0.763018 2.34314 0.5 3.00524 0.5H16.7357C17.3978 0.5 18.0328 0.763018 18.501 1.23119C18.9691 1.69937 19.2322 2.33435 19.2322 2.99645V4.86879H0.508789V2.99645Z" fill="#CFCFCF"/>
<path d="M0.509521 6.117H19.2329V11.734C19.2329 12.3961 18.9699 13.0311 18.5017 13.4993C18.0335 13.9674 17.3985 14.2305 16.7364 14.2305H3.00597C2.34387 14.2305 1.70889 13.9674 1.24071 13.4993C0.772539 13.0311 0.509521 12.3961 0.509521 11.734V6.117ZM14.24 11.1099C14.0745 11.1099 13.9157 11.1757 13.7987 11.2927C13.6816 11.4097 13.6159 11.5685 13.6159 11.734C13.6159 11.8995 13.6816 12.0583 13.7987 12.1753C13.9157 12.2924 14.0745 12.3581 14.24 12.3581H16.7364C16.902 12.3581 17.0607 12.2924 17.1778 12.1753C17.2948 12.0583 17.3605 11.8995 17.3605 11.734C17.3605 11.5685 17.2948 11.4097 17.1778 11.2927C17.0607 11.1757 16.902 11.1099 16.7364 11.1099H14.24Z" fill="#CFCFCF"/>
</svg>
