<svg width="19" height="17" viewBox="0 0 19 17" fill="none" xmlns="http://www.w3.org/2000/svg">
<path d="M7.77919 12.456V11.5472H1.42668L1.41759 15.1824C1.41759 16.1912 2.22642 17 3.23519 17H15.9584C16.9672 17 17.776 16.1912 17.776 15.1824V11.5472H11.4144V12.456H7.77919ZM16.8672 4.2768H13.2229V2.4592L11.4053 0.641602H7.7701L5.9525 2.4592V4.2768H2.32639C1.32671 4.2768 0.508789 5.09472 0.508789 6.0944V8.82081C0.508789 9.82957 1.31762 10.6384 2.32639 10.6384H7.77919V8.82081H11.4144V10.6384H16.8672C17.8669 10.6384 18.6848 9.82049 18.6848 8.82081V6.0944C18.6848 5.09472 17.8669 4.2768 16.8672 4.2768ZM11.4144 4.2768H7.77919V2.4592H11.4144V4.2768Z" fill="white"/>
</svg>
