<svg width="40" height="40" viewBox="0 0 40 40" fill="none" xmlns="http://www.w3.org/2000/svg">
<rect x="0.225586" y="0.454102" width="39.0656" height="39.0656" rx="19.5328" fill="white"/>
<path d="M30.6099 13.3681C29.8517 13.7071 29.0266 13.9511 28.1767 14.0461C29.0591 13.5027 29.7199 12.6443 30.0351 11.6318C29.2071 12.1424 28.3 12.5004 27.3541 12.69C26.9587 12.2519 26.4806 11.9029 25.9494 11.6647C25.4182 11.4265 24.8454 11.3043 24.2667 11.3056C21.9251 11.3056 20.042 13.273 20.042 15.6873C20.042 16.0264 20.0816 16.3654 20.1461 16.6916C16.6399 16.5015 13.5129 14.7653 11.434 12.107C11.0552 12.7776 10.8567 13.5412 10.8592 14.3184C10.8592 15.8389 11.605 17.1796 12.7423 17.9681C12.0721 17.9407 11.4175 17.7498 10.8319 17.4107V17.4647C10.8319 19.5939 12.2839 21.3584 14.2191 21.7642C13.8558 21.862 13.482 21.9121 13.1066 21.9132C12.8315 21.9132 12.5714 21.8849 12.3087 21.8464C12.8439 23.5826 14.4025 24.8437 16.2584 24.8848C14.8064 26.0637 12.9876 26.7572 11.0128 26.7572C10.6585 26.7572 10.3314 26.7444 9.99194 26.7033C11.8652 27.949 14.0878 28.6681 16.4814 28.6681C24.2518 28.6681 28.5038 21.9954 28.5038 16.2036C28.5038 16.0135 28.5038 15.8235 28.4914 15.6334C29.314 15.0093 30.0351 14.2362 30.6099 13.3681Z" fill="#06BF97"/>
</svg>
